<mxfile modified="2022-05-20T02:06:40.432Z" host="app.diagrams.net" agent="5.0 (Windows NT 10.0; Win64; x64) AppleWebKit/537.36 (KHTML, like Gecko) Chrome/101.0.4951.54 Safari/537.36" etag="TjRXDjbWIp2mpM-lnkK8" compressed="false" version="18.0.8" type="google">
  <diagram name="Integration/System Logical Module/API/Resource URLs/Session" id="D53LtkYNtA7yaz8SBfBf">
    <mxGraphModel grid="1" page="1" gridSize="10" guides="1" tooltips="1" connect="1" arrows="1" fold="1" pageScale="1" pageWidth="850" pageHeight="1100" math="0" shadow="0">
      <root>
        <mxCell id="KXWYEG6dJ7hu0ZfgVlic-0" />
        <mxCell id="KXWYEG6dJ7hu0ZfgVlic-1" value="Diagram" parent="KXWYEG6dJ7hu0ZfgVlic-0" />
        <mxCell id="KXWYEG6dJ7hu0ZfgVlic-2" value="List Sessions" style="text;html=1;strokeColor=none;fillColor=none;align=left;verticalAlign=middle;whiteSpace=wrap;rounded=0;dashed=1;fontFamily=Helvetica;fontSize=12;" vertex="1" parent="KXWYEG6dJ7hu0ZfgVlic-1">
          <mxGeometry x="400" y="300" width="320" height="20" as="geometry" />
        </mxCell>
        <mxCell id="KXWYEG6dJ7hu0ZfgVlic-3" value="Sessions" style="text;html=1;strokeColor=none;fillColor=none;align=left;verticalAlign=middle;whiteSpace=wrap;rounded=0;dashed=1;fontSize=12;fontFamily=Courier New;" vertex="1" parent="KXWYEG6dJ7hu0ZfgVlic-1">
          <mxGeometry x="160" y="300" width="200" height="20" as="geometry" />
        </mxCell>
        <mxCell id="KXWYEG6dJ7hu0ZfgVlic-4" value="Sessions(&#39;{uuid}&#39;)" style="text;html=1;strokeColor=none;fillColor=none;align=left;verticalAlign=middle;whiteSpace=wrap;rounded=0;dashed=1;fontSize=12;fontFamily=Courier New;" vertex="1" parent="KXWYEG6dJ7hu0ZfgVlic-1">
          <mxGeometry x="160" y="400" width="200" height="20" as="geometry" />
        </mxCell>
        <mxCell id="KXWYEG6dJ7hu0ZfgVlic-5" value="View Session&amp;nbsp;{uuid}" style="text;html=1;strokeColor=none;fillColor=none;align=left;verticalAlign=middle;whiteSpace=wrap;rounded=0;dashed=1;fontFamily=Helvetica;fontSize=12;" vertex="1" parent="KXWYEG6dJ7hu0ZfgVlic-1">
          <mxGeometry x="400" y="400" width="320" height="20" as="geometry" />
        </mxCell>
        <mxCell id="KXWYEG6dJ7hu0ZfgVlic-6" value="GET" style="text;html=1;strokeColor=none;fillColor=none;align=left;verticalAlign=middle;whiteSpace=wrap;rounded=0;dashed=1;fontSize=12;fontFamily=Courier New;" vertex="1" parent="KXWYEG6dJ7hu0ZfgVlic-1">
          <mxGeometry x="120" y="300" width="40" height="20" as="geometry" />
        </mxCell>
        <mxCell id="KXWYEG6dJ7hu0ZfgVlic-7" value="GET" style="text;html=1;strokeColor=none;fillColor=none;align=left;verticalAlign=middle;whiteSpace=wrap;rounded=0;dashed=1;fontSize=12;fontFamily=Courier New;" vertex="1" parent="KXWYEG6dJ7hu0ZfgVlic-1">
          <mxGeometry x="120" y="400" width="40" height="20" as="geometry" />
        </mxCell>
        <mxCell id="KXWYEG6dJ7hu0ZfgVlic-8" value="POST" style="text;html=1;strokeColor=none;fillColor=none;align=left;verticalAlign=middle;whiteSpace=wrap;rounded=0;dashed=1;fontSize=12;fontFamily=Courier New;" vertex="1" parent="KXWYEG6dJ7hu0ZfgVlic-1">
          <mxGeometry x="120" y="440" width="40" height="20" as="geometry" />
        </mxCell>
        <mxCell id="KXWYEG6dJ7hu0ZfgVlic-9" value="Sessions" style="text;html=1;strokeColor=none;fillColor=none;align=left;verticalAlign=middle;whiteSpace=wrap;rounded=0;dashed=1;fontSize=12;fontFamily=Courier New;" vertex="1" parent="KXWYEG6dJ7hu0ZfgVlic-1">
          <mxGeometry x="160" y="440" width="200" height="20" as="geometry" />
        </mxCell>
        <mxCell id="KXWYEG6dJ7hu0ZfgVlic-10" value="POST" style="text;html=1;strokeColor=none;fillColor=none;align=left;verticalAlign=middle;whiteSpace=wrap;rounded=0;dashed=1;fontSize=12;fontFamily=Courier New;" vertex="1" parent="KXWYEG6dJ7hu0ZfgVlic-1">
          <mxGeometry x="120" y="460" width="40" height="20" as="geometry" />
        </mxCell>
        <mxCell id="KXWYEG6dJ7hu0ZfgVlic-11" value="Sessions(&#39;{uuid}&#39;)" style="text;html=1;strokeColor=none;fillColor=none;align=left;verticalAlign=middle;whiteSpace=wrap;rounded=0;dashed=1;fontSize=12;fontFamily=Courier New;" vertex="1" parent="KXWYEG6dJ7hu0ZfgVlic-1">
          <mxGeometry x="160" y="460" width="200" height="20" as="geometry" />
        </mxCell>
        <mxCell id="KXWYEG6dJ7hu0ZfgVlic-12" value="&lt;font style=&quot;font-size: 11px&quot;&gt;Create&amp;nbsp;&lt;span style=&quot;font-size: 12px&quot;&gt;Session&lt;/span&gt;, server side generated Id. &lt;b&gt;&lt;font color=&quot;#cc0000&quot; style=&quot;font-size: 11px&quot;&gt;&lt;u&gt;NOT&lt;/u&gt;&lt;/font&gt; &lt;/b&gt;recommended.&lt;/font&gt;" style="text;html=1;strokeColor=none;fillColor=none;align=left;verticalAlign=middle;whiteSpace=wrap;rounded=0;dashed=1;fontFamily=Helvetica;fontSize=12;" vertex="1" parent="KXWYEG6dJ7hu0ZfgVlic-1">
          <mxGeometry x="400" y="440" width="320" height="20" as="geometry" />
        </mxCell>
        <mxCell id="KXWYEG6dJ7hu0ZfgVlic-13" value="&lt;font style=&quot;font-size: 11px&quot;&gt;Create&amp;nbsp;&lt;span style=&quot;font-size: 12px&quot;&gt;Session&lt;/span&gt;, client side generated UUID. &lt;b&gt;&lt;font color=&quot;#009900&quot; style=&quot;font-size: 11px&quot;&gt;RECOMMNEDED&lt;/font&gt;&lt;/b&gt;.&lt;/font&gt;" style="text;html=1;strokeColor=none;fillColor=none;align=left;verticalAlign=middle;whiteSpace=wrap;rounded=0;dashed=1;fontFamily=Helvetica;fontSize=12;" vertex="1" parent="KXWYEG6dJ7hu0ZfgVlic-1">
          <mxGeometry x="400" y="460" width="320" height="20" as="geometry" />
        </mxCell>
        <mxCell id="KXWYEG6dJ7hu0ZfgVlic-14" value="PUT" style="text;html=1;strokeColor=none;fillColor=none;align=left;verticalAlign=middle;whiteSpace=wrap;rounded=0;dashed=1;fontSize=12;fontFamily=Courier New;" vertex="1" parent="KXWYEG6dJ7hu0ZfgVlic-1">
          <mxGeometry x="120" y="420" width="40" height="20" as="geometry" />
        </mxCell>
        <mxCell id="KXWYEG6dJ7hu0ZfgVlic-15" value="Sessions(&#39;{uuid}&#39;)" style="text;html=1;strokeColor=none;fillColor=none;align=left;verticalAlign=middle;whiteSpace=wrap;rounded=0;dashed=1;fontSize=12;fontFamily=Courier New;" vertex="1" parent="KXWYEG6dJ7hu0ZfgVlic-1">
          <mxGeometry x="160" y="420" width="200" height="20" as="geometry" />
        </mxCell>
        <mxCell id="KXWYEG6dJ7hu0ZfgVlic-16" value="Create Session, client side generated UUID." style="text;html=1;strokeColor=none;fillColor=none;align=left;verticalAlign=middle;whiteSpace=wrap;rounded=0;dashed=1;fontFamily=Helvetica;fontSize=12;" vertex="1" parent="KXWYEG6dJ7hu0ZfgVlic-1">
          <mxGeometry x="400" y="420" width="320" height="20" as="geometry" />
        </mxCell>
        <mxCell id="KXWYEG6dJ7hu0ZfgVlic-17" value="DELETE" style="text;html=1;strokeColor=none;fillColor=none;align=left;verticalAlign=middle;whiteSpace=wrap;rounded=0;dashed=1;fontSize=10;fontFamily=Courier New;" vertex="1" parent="KXWYEG6dJ7hu0ZfgVlic-1">
          <mxGeometry x="120" y="480" width="40" height="20" as="geometry" />
        </mxCell>
        <mxCell id="KXWYEG6dJ7hu0ZfgVlic-18" value="Sessions(&#39;{uuid}&#39;)" style="text;html=1;strokeColor=none;fillColor=none;align=left;verticalAlign=middle;whiteSpace=wrap;rounded=0;dashed=1;fontSize=12;fontFamily=Courier New;" vertex="1" parent="KXWYEG6dJ7hu0ZfgVlic-1">
          <mxGeometry x="160" y="480" width="200" height="20" as="geometry" />
        </mxCell>
        <mxCell id="KXWYEG6dJ7hu0ZfgVlic-19" value="Delete Session&amp;nbsp;{uuid}" style="text;html=1;strokeColor=none;fillColor=none;align=left;verticalAlign=middle;whiteSpace=wrap;rounded=0;dashed=1;fontFamily=Helvetica;fontSize=12;" vertex="1" parent="KXWYEG6dJ7hu0ZfgVlic-1">
          <mxGeometry x="400" y="480" width="320" height="20" as="geometry" />
        </mxCell>
        <mxCell id="KXWYEG6dJ7hu0ZfgVlic-20" value="&lt;font style=&quot;font-size: 11px&quot;&gt;List&amp;nbsp;&lt;span style=&quot;font-size: 12px&quot;&gt;Sessions&lt;/span&gt;, page 3, using ODATA standard filter arguments.&lt;/font&gt;" style="text;html=1;strokeColor=none;fillColor=none;align=left;verticalAlign=middle;whiteSpace=wrap;rounded=0;dashed=1;fontFamily=Helvetica;fontSize=12;" vertex="1" parent="KXWYEG6dJ7hu0ZfgVlic-1">
          <mxGeometry x="400" y="340" width="320" height="20" as="geometry" />
        </mxCell>
        <mxCell id="KXWYEG6dJ7hu0ZfgVlic-21" value="&lt;font style=&quot;font-size: 10px&quot;&gt;&lt;span style=&quot;font-size: 12px&quot;&gt;Sessions&lt;/span&gt;?$top=80&amp;amp;$skip=60&lt;/font&gt;" style="text;html=1;strokeColor=none;fillColor=none;align=left;verticalAlign=middle;whiteSpace=wrap;rounded=0;dashed=1;fontSize=12;fontFamily=Courier New;" vertex="1" parent="KXWYEG6dJ7hu0ZfgVlic-1">
          <mxGeometry x="160" y="340" width="200" height="20" as="geometry" />
        </mxCell>
        <mxCell id="KXWYEG6dJ7hu0ZfgVlic-22" value="GET" style="text;html=1;strokeColor=none;fillColor=none;align=left;verticalAlign=middle;whiteSpace=wrap;rounded=0;dashed=1;fontSize=12;fontFamily=Courier New;" vertex="1" parent="KXWYEG6dJ7hu0ZfgVlic-1">
          <mxGeometry x="120" y="340" width="40" height="20" as="geometry" />
        </mxCell>
        <mxCell id="KXWYEG6dJ7hu0ZfgVlic-23" value="Count Sessions, using ODATA standard filter arguments." style="text;html=1;strokeColor=none;fillColor=none;align=left;verticalAlign=middle;whiteSpace=wrap;rounded=0;dashed=1;fontFamily=Helvetica;fontSize=12;" vertex="1" parent="KXWYEG6dJ7hu0ZfgVlic-1">
          <mxGeometry x="400" y="320" width="320" height="20" as="geometry" />
        </mxCell>
        <mxCell id="KXWYEG6dJ7hu0ZfgVlic-24" value="Sessions?$count=true" style="text;html=1;strokeColor=none;fillColor=none;align=left;verticalAlign=middle;whiteSpace=wrap;rounded=0;dashed=1;fontSize=12;fontFamily=Courier New;" vertex="1" parent="KXWYEG6dJ7hu0ZfgVlic-1">
          <mxGeometry x="160" y="320" width="200" height="20" as="geometry" />
        </mxCell>
        <mxCell id="KXWYEG6dJ7hu0ZfgVlic-25" value="GET" style="text;html=1;strokeColor=none;fillColor=none;align=left;verticalAlign=middle;whiteSpace=wrap;rounded=0;dashed=1;fontSize=12;fontFamily=Courier New;" vertex="1" parent="KXWYEG6dJ7hu0ZfgVlic-1">
          <mxGeometry x="120" y="320" width="40" height="20" as="geometry" />
        </mxCell>
        <mxCell id="KXWYEG6dJ7hu0ZfgVlic-26" value="GET" style="text;html=1;strokeColor=none;fillColor=none;align=left;verticalAlign=middle;whiteSpace=wrap;rounded=0;dashed=1;fontSize=12;fontFamily=Courier New;" vertex="1" parent="KXWYEG6dJ7hu0ZfgVlic-1">
          <mxGeometry x="120" y="360" width="40" height="20" as="geometry" />
        </mxCell>
        <mxCell id="KXWYEG6dJ7hu0ZfgVlic-27" value="Sessions?$search=xyz" style="text;html=1;strokeColor=none;fillColor=none;align=left;verticalAlign=middle;whiteSpace=wrap;rounded=0;dashed=1;fontSize=12;fontFamily=Courier New;" vertex="1" parent="KXWYEG6dJ7hu0ZfgVlic-1">
          <mxGeometry x="160" y="360" width="200" height="20" as="geometry" />
        </mxCell>
        <mxCell id="KXWYEG6dJ7hu0ZfgVlic-28" value="List Sessions&amp;nbsp;that meet custom search criteria." style="text;html=1;strokeColor=none;fillColor=none;align=left;verticalAlign=middle;whiteSpace=wrap;rounded=0;dashed=1;fontFamily=Helvetica;fontSize=12;" vertex="1" parent="KXWYEG6dJ7hu0ZfgVlic-1">
          <mxGeometry x="400" y="360" width="320" height="20" as="geometry" />
        </mxCell>
        <mxCell id="KXWYEG6dJ7hu0ZfgVlic-29" value="Description" style="text;html=1;strokeColor=none;fillColor=#f5f5f5;align=left;verticalAlign=middle;whiteSpace=wrap;rounded=0;fontSize=12;fontFamily=Helvetica;fontColor=#333333;fontStyle=0" vertex="1" parent="KXWYEG6dJ7hu0ZfgVlic-1">
          <mxGeometry x="400" y="200" width="320" height="20" as="geometry" />
        </mxCell>
        <mxCell id="KXWYEG6dJ7hu0ZfgVlic-30" value="URL" style="text;html=1;strokeColor=none;fillColor=#f5f5f5;align=left;verticalAlign=middle;whiteSpace=wrap;rounded=0;fontSize=12;fontFamily=Helvetica;fontColor=#333333;fontStyle=0" vertex="1" parent="KXWYEG6dJ7hu0ZfgVlic-1">
          <mxGeometry x="160" y="200" width="230" height="20" as="geometry" />
        </mxCell>
        <mxCell id="KXWYEG6dJ7hu0ZfgVlic-31" value="&lt;font style=&quot;font-size: 10px;&quot;&gt;VERB&lt;/font&gt;" style="text;html=1;strokeColor=none;fillColor=#f5f5f5;align=left;verticalAlign=middle;whiteSpace=wrap;rounded=0;fontSize=10;fontFamily=Helvetica;fontColor=#333333;fontStyle=0" vertex="1" parent="KXWYEG6dJ7hu0ZfgVlic-1">
          <mxGeometry x="120" y="200" width="30" height="20" as="geometry" />
        </mxCell>
        <mxCell id="KXWYEG6dJ7hu0ZfgVlic-32" value="&lt;font style=&quot;font-size: 9px&quot;&gt;SummaryItem?$search=Session,abc:xyz&lt;/font&gt;" style="text;html=1;strokeColor=none;fillColor=none;align=left;verticalAlign=middle;whiteSpace=wrap;rounded=0;dashed=1;fontSize=9;fontFamily=Courier New;" vertex="1" parent="KXWYEG6dJ7hu0ZfgVlic-1">
          <mxGeometry x="160" y="260" width="250" height="20" as="geometry" />
        </mxCell>
        <mxCell id="KXWYEG6dJ7hu0ZfgVlic-33" value="GET" style="text;html=1;strokeColor=none;fillColor=none;align=left;verticalAlign=middle;whiteSpace=wrap;rounded=0;dashed=1;fontSize=12;fontFamily=Courier New;" vertex="1" parent="KXWYEG6dJ7hu0ZfgVlic-1">
          <mxGeometry x="120" y="260" width="40" height="20" as="geometry" />
        </mxCell>
        <mxCell id="KXWYEG6dJ7hu0ZfgVlic-34" value="&lt;font style=&quot;font-size: 10px&quot;&gt;SummaryItem?$search=Session:xyz&lt;/font&gt;" style="text;html=1;strokeColor=none;fillColor=none;align=left;verticalAlign=middle;whiteSpace=wrap;rounded=0;dashed=1;fontSize=10;fontFamily=Courier New;" vertex="1" parent="KXWYEG6dJ7hu0ZfgVlic-1">
          <mxGeometry x="160" y="240" width="240" height="20" as="geometry" />
        </mxCell>
        <mxCell id="KXWYEG6dJ7hu0ZfgVlic-35" value="GET" style="text;html=1;strokeColor=none;fillColor=none;align=left;verticalAlign=middle;whiteSpace=wrap;rounded=0;dashed=1;fontSize=12;fontFamily=Courier New;" vertex="1" parent="KXWYEG6dJ7hu0ZfgVlic-1">
          <mxGeometry x="120" y="240" width="40" height="20" as="geometry" />
        </mxCell>
        <mxCell id="KXWYEG6dJ7hu0ZfgVlic-36" value="List SummaryItems of type Session custom matching xyz" style="text;html=1;strokeColor=none;fillColor=none;align=left;verticalAlign=middle;whiteSpace=wrap;rounded=0;dashed=1;fontFamily=Helvetica;fontSize=12;" vertex="1" parent="KXWYEG6dJ7hu0ZfgVlic-1">
          <mxGeometry x="400" y="240" width="320" height="20" as="geometry" />
        </mxCell>
        <mxCell id="KXWYEG6dJ7hu0ZfgVlic-37" value="List SummaryItems&amp;nbsp;of type Session&amp;nbsp;&amp;amp; abc matching xyz" style="text;html=1;strokeColor=none;fillColor=none;align=left;verticalAlign=middle;whiteSpace=wrap;rounded=0;dashed=1;fontFamily=Helvetica;fontSize=12;" vertex="1" parent="KXWYEG6dJ7hu0ZfgVlic-1">
          <mxGeometry x="400" y="260" width="320" height="20" as="geometry" />
        </mxCell>
        <mxCell id="KXWYEG6dJ7hu0ZfgVlic-38" value="Context/Legend" parent="KXWYEG6dJ7hu0ZfgVlic-0" />
        <mxCell id="KXWYEG6dJ7hu0ZfgVlic-39" value="Title/Diagram" parent="KXWYEG6dJ7hu0ZfgVlic-0" />
        <mxCell id="KXWYEG6dJ7hu0ZfgVlic-40" value="&lt;font style=&quot;font-size: 12px ; font-weight: normal&quot;&gt;&lt;i&gt;Diagram: Base&amp;nbsp;&lt;/i&gt;&lt;i&gt;System&amp;nbsp;&lt;/i&gt;&lt;i&gt;Logical Module - Interoperability - APIs - Session&lt;/i&gt;&lt;/font&gt;" style="text;strokeColor=none;fillColor=none;html=1;fontSize=12;fontStyle=1;verticalAlign=middle;align=left;shadow=0;glass=0;comic=0;opacity=30;fontColor=#808080;" vertex="1" parent="KXWYEG6dJ7hu0ZfgVlic-39">
          <mxGeometry x="120" y="520" width="520" height="20" as="geometry" />
        </mxCell>
        <mxCell id="KXWYEG6dJ7hu0ZfgVlic-41" value="Title/Page" visible="0" parent="KXWYEG6dJ7hu0ZfgVlic-0" />
        <mxCell id="KXWYEG6dJ7hu0ZfgVlic-42" value="" style="group;fontSize=12;" vertex="1" connectable="0" parent="KXWYEG6dJ7hu0ZfgVlic-41">
          <mxGeometry x="120" y="120" width="600" height="45" as="geometry" />
        </mxCell>
        <mxCell id="KXWYEG6dJ7hu0ZfgVlic-43" value="&lt;font style=&quot;font-size: 12px&quot;&gt;Base Logical Module - Interoperability&amp;nbsp;- APIs - Session&lt;/font&gt;" style="text;strokeColor=none;fillColor=none;html=1;fontSize=12;fontStyle=1;verticalAlign=middle;align=left;shadow=0;glass=0;comic=0;opacity=30;fontColor=#808080;" vertex="1" parent="KXWYEG6dJ7hu0ZfgVlic-42">
          <mxGeometry y="20" width="600" height="20" as="geometry" />
        </mxCell>
        <mxCell id="KXWYEG6dJ7hu0ZfgVlic-44" value="" style="line;strokeWidth=2;html=1;shadow=0;glass=0;comic=0;fillColor=none;fontSize=10;fontColor=#CCCCCC;labelBackgroundColor=none;strokeColor=#CCCCCC;" vertex="1" parent="KXWYEG6dJ7hu0ZfgVlic-42">
          <mxGeometry y="35" width="600" height="10" as="geometry" />
        </mxCell>
        <mxCell id="KXWYEG6dJ7hu0ZfgVlic-45" value="About" parent="KXWYEG6dJ7hu0ZfgVlic-0" />
      </root>
    </mxGraphModel>
  </diagram>
</mxfile>
